<?xml version="1.0" encoding="UTF-8"?>
<svg width="636px" height="159px" viewBox="0 0 636 159" version="1.1" xmlns="http://www.w3.org/2000/svg" xmlns:xlink="http://www.w3.org/1999/xlink">
    <!-- Generator: Sketch 51.2 (57519) - http://www.bohemiancoding.com/sketch -->
    <title>Group 4</title>
    <desc>Created with Sketch.</desc>
    <defs>
        <path d="M99.6245155,7.26744186 L99.6245155,1.38114156 C99.6245155,0.377717228 100.437952,-0.435718909 101.441376,-0.435718909 C101.828359,-0.435718909 102.205233,-0.312156899 102.517096,-0.0830332495 L142.144692,29.031119 C142.953334,29.6252229 143.127251,30.7623726 142.533147,31.571014 C142.4241,31.7194395 142.293118,31.8504213 142.144692,31.9594686 L102.517096,61.0736208 C101.708455,61.6677247 100.571305,61.4938077 99.9772012,60.6851662 C99.7480775,60.3733035 99.6245155,59.9964292 99.6245155,59.609446 L99.6245155,53.2945736 L2.42248062,53.2945736 C1.08458152,53.2945736 -1.18020824e-16,52.2099921 -4.4408921e-15,50.872093 L0,9.68992248 C-1.63845385e-16,8.35202338 1.08458152,7.26744186 2.42248062,7.26744186 L99.6245155,7.26744186 Z" id="path-1"></path>
        <path d="M99.6245155,7.26744186 L99.6245155,1.38114156 C99.6245155,0.377717228 100.437952,-0.435718909 101.441376,-0.435718909 C101.828359,-0.435718909 102.205233,-0.312156899 102.517096,-0.0830332495 L142.144692,29.031119 C142.953334,29.6252229 143.127251,30.7623726 142.533147,31.571014 C142.4241,31.7194395 142.293118,31.8504213 142.144692,31.9594686 L102.517096,61.0736208 C101.708455,61.6677247 100.571305,61.4938077 99.9772012,60.6851662 C99.7480775,60.3733035 99.6245155,59.9964292 99.6245155,59.609446 L99.6245155,53.2945736 L2.42248062,53.2945736 C1.08458152,53.2945736 -1.18020824e-16,52.2099921 -4.4408921e-15,50.872093 L0,9.68992248 C-1.63845385e-16,8.35202338 1.08458152,7.26744186 2.42248062,7.26744186 L99.6245155,7.26744186 Z" id="path-3"></path>
        <circle id="path-5" cx="19.500969" cy="20.3488372" r="19.500969"></circle>
        <circle id="path-7" cx="27.8585271" cy="27.8585271" r="27.8585271"></circle>
        <rect id="path-9" x="0" y="0" width="129.602713" height="100.532946" rx="8.47868217"></rect>
    </defs>
    <g id="Landing" stroke="none" stroke-width="1" fill="none" fill-rule="evenodd">
        <g id="Skitbay_Landing" transform="translate(-1077.000000, -1843.000000)">
            <g id="Group-4" transform="translate(1077.000000, 1843.000000)">
                <g id="Group-5" transform="translate(198.000000, 18.000000)">
                    <g id="Group-38" transform="translate(72.426357, 75.315891) scale(1, -1) rotate(180.000000) translate(-72.426357, -75.315891) translate(0.926357, 44.815891)">
                        <g id="Group-37">
                            <mask id="mask-2" fill="white">
                                <use xlink:href="#path-1"></use>
                            </mask>
                            <use id="Rectangle-21" fill="#DFE5EF" xlink:href="#path-1"></use>
                            <path d="M111.736919,-1.21124031 L111.736919,-13.1685371 C111.736919,-14.5064362 112.8215,-15.5910177 114.159399,-15.5910177 C114.675377,-15.5910177 115.177876,-15.4262684 115.593693,-15.1207702 L153.592794,12.7969367 C154.670982,13.5890752 154.902872,15.1052749 154.110733,16.1834634 C153.965337,16.3813641 153.790695,16.5560064 153.592794,16.7014028 L115.593693,44.6191096 C114.809658,45.1951351 113.794009,45.2296675 112.993588,44.7910477 C112.87987,44.8074189 112.763599,44.8158915 112.645349,44.8158915 L12.1124031,44.8158915 C10.774504,44.8158915 9.68992248,43.73131 9.68992248,42.3934109 L9.68992248,1.21124031 C9.68992248,-0.126658793 10.774504,-1.21124031 12.1124031,-1.21124031 L111.736919,-1.21124031 Z" id="Rectangle-21" fill="#E6ECF3" mask="url(#mask-2)"></path>
                            <text id="SELL" mask="url(#mask-2)" transform="translate(63.590116, 21.077519) scale(-1, 1) translate(-63.590116, -21.077519) " font-family="Gilroy-Heavy, Gilroy" font-size="29.0697674" font-weight="600" line-spacing="48.4496124" letter-spacing="1.62306206" fill="#FFFFFF">
                                <tspan x="29.8207364" y="19.5775194">SELL</tspan>
                            </text>
                        </g>
                    </g>
                    <g id="Group-38" transform="translate(43.604651, 0.000000)">
                        <g id="Group-37">
                            <mask id="mask-4" fill="white">
                                <use xlink:href="#path-3"></use>
                            </mask>
                            <use id="Rectangle-21" fill="#FFBB62" xlink:href="#path-3"></use>
                            <path d="M111.736919,-1.21124031 L111.736919,-13.1685371 C111.736919,-14.5064362 112.8215,-15.5910177 114.159399,-15.5910177 C114.675377,-15.5910177 115.177876,-15.4262684 115.593693,-15.1207702 L153.592794,12.7969367 C154.670982,13.5890752 154.902872,15.1052749 154.110733,16.1834634 C153.965337,16.3813641 153.790695,16.5560064 153.592794,16.7014028 L115.593693,44.6191096 C114.809658,45.1951351 113.794009,45.2296675 112.993588,44.7910477 C112.87987,44.8074189 112.763599,44.8158915 112.645349,44.8158915 L12.1124031,44.8158915 C10.774504,44.8158915 9.68992248,43.73131 9.68992248,42.3934109 L9.68992248,1.21124031 C9.68992248,-0.126658793 10.774504,-1.21124031 12.1124031,-1.21124031 L111.736919,-1.21124031 Z" id="Rectangle-21" fill="#FFCE62" opacity="0.705970982" mask="url(#mask-4)"></path>
                            <text id="BUY" mask="url(#mask-4)" font-family="Gilroy-Heavy, Gilroy" font-size="29.0697674" font-weight="600" line-spacing="48.4496124" letter-spacing="1.62306206" fill="#FFFFFF">
                                <tspan x="32.1245154" y="19.7887597">BUY</tspan>
                            </text>
                        </g>
                    </g>
                </g>
                <g id="Group-34">
                    <g id="Group-29" transform="translate(82.364341, 15.746124)">
                        <g id="Group-30">
                            <mask id="mask-6" fill="white">
                                <use xlink:href="#path-5"></use>
                            </mask>
                            <circle stroke="#C3CAD4" stroke-width="2.42248062" cx="19.500969" cy="20.3488372" r="18.2897287"></circle>
                            <text id="Ł" mask="url(#mask-6)" font-family="Helvetica" font-size="27.374031" font-weight="normal" letter-spacing="0.391057656" fill="#C3CAD4">
                                <tspan x="13.0813953" y="28.4224806">Ł</tspan>
                            </text>
                        </g>
                    </g>
                    <g id="Group-33" transform="translate(10.901163, 15.746124)">
                        <g id="Group-29" fill="#E6ECF3" stroke="#C3CAD4" stroke-width="2.42248062">
                            <g id="Group-30">
                                <circle id="Oval-8" cx="19.500969" cy="20.3488372" r="18.2897287"></circle>
                            </g>
                        </g>
                        <g id="Group-32" transform="translate(10.901163, 4.844961)">
                            <polygon id="Path-9" fill="#CFD7E3" points="8.72093023 0.847868217 8.47868217 20.5910853 16.9573643 14.5348837"></polygon>
                            <polygon id="Path-10" fill="#CFD7E3" points="8.47868217 23.0135659 9.68992248 29.0697674 16.9573643 19.379845"></polygon>
                            <polygon id="Path-8" fill="#A5ADB9" points="0 14.5348837 8.47868217 10.9011628 16.9573643 14.8982558 8.47868217 19.7432171"></polygon>
                            <path d="M0.469507216,13.8164115 L7.3434287,1.57929596 C7.73656983,0.879416955 8.62263771,0.63075677 9.32251672,1.02389789 C9.54860689,1.15089891 9.73660323,1.33607418 9.86700789,1.56021844 L16.981734,13.7892682 C17.3841115,14.4808892 17.1518173,15.3676594 16.4620367,15.7731837 L9.33826603,19.9612724 C8.87661052,20.2326812 8.30310985,20.2282478 7.84570544,19.9497343 L0.980828456,15.7697114 C0.312164872,15.3625622 0.0860983726,14.4989648 0.469507216,13.8164115 Z" id="Path-6" stroke="#C3CAD4" stroke-width="1.45348829"></path>
                            <path d="M0.726744186,14.8508296 L7.87399545,11.266862 C8.36727085,11.0195106 8.94487051,11.0154675 9.44145183,11.2558902 L16.8464625,14.8410683" id="Path-6" stroke="#C3CAD4" stroke-width="1.45348829"></path>
                            <path d="M1.74232005,19.2386238 L8.45654845,22.6615404 C8.66390385,22.7672503 8.90934561,22.7672503 9.11670101,22.6615404 L15.8309294,19.2386238 C16.1885126,19.0563277 16.6261713,19.198426 16.8084674,19.5560092 C16.9355919,19.8053705 16.9082157,20.1055755 16.7380839,20.3278295 L9.94078124,29.2075785 C9.45284433,29.8450016 8.54055983,29.966184 7.90313679,29.4782471 C7.80137619,29.400351 7.71036429,29.3093391 7.63246822,29.2075785 L0.835165518,20.3278295 C0.59119706,20.009118 0.651788285,19.5529757 0.970499805,19.3090073 C1.19275379,19.1388755 1.49295881,19.1114993 1.74232005,19.2386238 Z" id="Path-7" stroke="#C3CAD4" stroke-width="1.45348829"></path>
                            <path d="M8.90261627,1.10784175 L8.90261627,19.5718709" id="Line" stroke="#C3CAD4" stroke-width="1.45348829" stroke-linecap="square"></path>
                            <path d="M8.90261628,23.2646767 L8.90261628,29.173166" id="Line" stroke="#C3CAD4" stroke-width="1.45348829" stroke-linecap="square"></path>
                        </g>
                    </g>
                    <g id="Group-29" transform="translate(37.548450, 0.000000)">
                        <mask id="mask-8" fill="white">
                            <use xlink:href="#path-7"></use>
                        </mask>
                        <circle stroke="#FFBB62" stroke-width="2.42248062" cx="27.8585271" cy="27.8585271" r="26.6472868"></circle>
                        <rect id="Rectangle-20" fill="#FFBB62" opacity="0.535435268" mask="url(#mask-8)" x="0" y="38.7596899" width="52.0833333" height="10.9011628"></rect>
                        <text id="₿" mask="url(#mask-8)" font-family=".SFCompactDisplay-Regular, .SF Compact Display" font-size="43.6046512" font-weight="normal" letter-spacing="0.622923551" fill="#FFFFFF">
                            <tspan x="15.746124" y="42">₿</tspan>
                        </text>
                    </g>
                    <g id="Group-31" transform="translate(0.000000, 43.604651)">
                        <g id="Group-27">
                            <mask id="mask-10" fill="white">
                                <use xlink:href="#path-9"></use>
                            </mask>
                            <rect stroke="#FFBB62" stroke-width="2.42248062" x="1.21124031" y="1.21124031" width="127.180233" height="98.1104651" rx="8.47868217"></rect>
                            <path d="M90.8430233,38.7596899 L122.335271,38.7596899 C125.01107,38.7596899 127.180233,40.928853 127.180233,43.6046512 L127.180233,71.4631783 L90.8430233,71.4631783 C88.167225,71.4631783 85.998062,69.2940153 85.998062,66.6182171 L85.998062,43.6046512 C85.998062,40.928853 88.167225,38.7596899 90.8430233,38.7596899 Z" id="Rectangle-19" fill="#E6ECF3" mask="url(#mask-10)"></path>
                        </g>
                        <path d="M115.109412,2.42248062 C114.423903,45.2196382 114.081149,69.6654391 114.081149,75.7598833 C114.081149,84.9015495 108.943054,88.8381326 92.2533981,88.8381326 C81.1269609,88.8381326 51.2458547,88.8381326 2.61007962,88.8381326 L2.61007962,91.7409147 C2.61007962,95.0856624 5.32153341,97.7971162 8.66628117,97.7971162 L120.901685,97.7971162 C124.246433,97.7971162 126.957887,95.0856624 126.957887,91.7409147 L126.957887,8.47868217 C126.957887,5.13393441 124.246433,2.42248062 120.901685,2.42248062 L115.109412,2.42248062 Z" id="Path-4" fill="#E6ECF3" style="mix-blend-mode: multiply;" transform="translate(64.783983, 50.109798) scale(-1, 1) translate(-64.783983, -50.109798) "></path>
                        <rect id="Rectangle-19" stroke="#FFBB62" stroke-width="2.42248062" fill="#FFFFFF" x="84.7868217" y="36.3372093" width="49.6608527" height="30.2810078" rx="4.84496124"></rect>
                        <circle id="Oval-7" stroke="#FFBB62" stroke-width="2.42248062" fill="#FFCE62" cx="99.3217054" cy="50.872093" r="7.26744186"></circle>
                        <path d="M3.63372093,13.3236434 L127.180233,13.3236434" id="Path-3" stroke="#FFBB62" stroke-width="2.42248062" stroke-dasharray="6.056201550387597,6.056201550387597"></path>
                        <path d="M3.63372093,89.6317829 L127.180233,89.6317829" id="Path-3" stroke="#FFBB62" stroke-width="2.42248062" stroke-dasharray="6.056201550387597,6.056201550387597"></path>
                    </g>
                </g>
                <g id="Group-3" opacity="0.429017857" transform="translate(12.000000, 144.000000)">
                    <rect id="Rectangle" fill="#E6ECF3" x="0" y="0" width="177.702532" height="8.75" rx="4.23934109"></rect>
                    <rect id="Rectangle" fill="#E6ECF3" x="182.537975" y="0" width="8.46202532" height="8.75" rx="4.23101266"></rect>
                    <rect id="Rectangle" fill="#E6ECF3" x="0" y="0" width="124.512658" height="15" rx="4.84496124"></rect>
                    <rect id="Rectangle" fill="#BFC9D5" x="1.20886076" y="0" width="145.063291" height="3.75" rx="1.875"></rect>
                </g>
                <g id="Group-3" opacity="0.429017857" transform="translate(496.000000, 150.000000) scale(-1, 1) translate(-496.000000, -150.000000) translate(359.000000, 141.000000)">
                    <rect id="Rectangle" fill="#E6ECF3" x="71.5309735" y="3.6" width="190.345133" height="8.4" rx="4.2"></rect>
                    <rect id="Rectangle" fill="#E6ECF3" x="265.513274" y="3.6" width="8.48672566" height="8.4" rx="4.2"></rect>
                    <rect id="Rectangle" fill="#E6ECF3" x="0" y="3.6" width="191.557522" height="14.4" rx="4.84496124"></rect>
                    <rect id="Rectangle" fill="#BFC9D5" x="1.21238938" y="3.6" width="218.230088" height="3.6" rx="1.8"></rect>
                    <rect id="Rectangle" fill="#BFC9D5" x="104.265487" y="0" width="16.9734513" height="3.6" rx="1.8"></rect>
                </g>
                <g id="Group-35" transform="translate(431.000000, 27.000000)">
                    <g id="Group-28">
                        <g id="Group-19" transform="translate(44.835294, 0.000000)">
                            <rect id="Rectangle-14" stroke="#FFBB62" stroke-width="2.42248062" fill="#FFFFFF" x="13.3288874" y="44.6339207" width="100.577519" height="67.5362823" rx="2.42248062"></rect>
                            <rect id="Rectangle-14" fill="#E6ECF3" x="16.9647059" y="45.8350515" width="95.7294118" height="9.64948454"></rect>
                            <rect id="Rectangle-14" fill="#FFCE62" x="52.1058824" y="45.8350515" width="20.6" height="63.9278351"></rect>
                            <rect id="Rectangle-14" fill="#E9B96A" x="52.1058824" y="45.8350515" width="20.6" height="9.64948454"></rect>
                            <rect id="Rectangle-14" stroke="#FFBB62" stroke-width="2.42248062" fill="#FFFFFF" x="1.21124031" y="25.3349517" width="122.389284" height="19.2888596" rx="2.42248062"></rect>
                            <g id="Group-18" transform="translate(8.482353, 0.000000)" fill="#FFCE62">
                                <path d="M19.2878037,0 C19.2878037,0 22.1278772,0 25.2890026,1.59076647 C28.9870726,3.45173849 39.2607299,11.2146161 56.1099744,24.8793993 C19.8998228,24.8793993 1.79474692,24.8793993 1.79474692,24.8793993 C0.643083684,22.636693 0,20.135695 0,17.4984312 C0,7.8343145 8.63544386,0 19.2878037,0 Z M18.7691816,6.36306589 C12.7678521,6.36306589 7.9028133,10.7767642 7.9028133,16.221337 C7.9028133,17.7071194 8.26511397,19.1161324 8.91393832,20.3796289 C8.91393832,20.3796289 19.113981,20.3796289 39.5140665,20.3796289 C30.0215343,12.6811595 24.2335584,8.30770729 22.1501387,7.25927235 C20.369223,6.36306589 18.7691816,6.36306589 18.7691816,6.36306589 Z" id="Combined-Shape" stroke="#FFBB62" stroke-width="2.42248062"></path>
                                <path d="M71.4463715,0 C71.4463715,0 74.286445,0 77.4475703,1.59076647 C81.1456403,3.45173849 91.4192976,11.2146161 108.268542,24.8793993 C72.0583905,24.8793993 53.9533147,24.8793993 53.9533147,24.8793993 C52.8016515,22.636693 52.1585678,20.135695 52.1585678,17.4984312 C52.1585678,7.8343145 60.7940116,0 71.4463715,0 Z M70.9277494,6.36306589 C64.9264199,6.36306589 60.0613811,10.7767642 60.0613811,16.221337 C60.0613811,17.7071194 60.4236817,19.1161324 61.0725061,20.3796289 C61.0725061,20.3796289 71.2725488,20.3796289 91.6726343,20.3796289 C82.1801021,12.6811595 76.3921262,8.30770729 74.3087065,7.25927235 C72.5277908,6.36306589 70.9277494,6.36306589 70.9277494,6.36306589 Z" id="Combined-Shape" stroke="#FFBB62" stroke-width="2.42248062" transform="translate(80.213555, 12.439700) scale(-1, 1) translate(-80.213555, -12.439700) "></path>
                                <rect id="Rectangle-14" x="43.6235294" y="26.5360825" width="20.1339367" height="16.8865979"></rect>
                                <path d="M49.8682539,25.8073164 L59.1905696,25.8073164 L59.1905696,17.7486194 C59.1905696,16.0762456 57.8348427,14.7205187 56.1624689,14.7205187 L52.8963547,14.7205187 C51.2239808,14.7205187 49.8682539,16.0762456 49.8682539,17.7486194 L49.8682539,25.8073164 Z" id="Rectangle-15" stroke="#FFBB62" stroke-width="2.42248062"></path>
                            </g>
                        </g>
                        <g id="Group-19" transform="translate(0.000000, 36.185567)">
                            <rect id="Rectangle-14" stroke="#FFBB62" stroke-width="2.42248062" fill="#FFFFFF" x="9.69359325" y="31.3658795" width="71.4951664" height="48.2373132" rx="2.42248062"></rect>
                            <rect id="Rectangle-14" fill="#E6ECF3" x="10.9058824" y="32.5670103" width="69.0705882" height="7.2371134"></rect>
                            <rect id="Rectangle-14" fill="#FFCE62" x="37.5647059" y="32.5670103" width="14.5411765" height="45.8350515"></rect>
                            <rect id="Rectangle-14" fill="#E9B96A" x="37.5647059" y="32.5670103" width="14.5411765" height="7.2371134"></rect>
                            <rect id="Rectangle-14" stroke="#FFBB62" stroke-width="2.42248062" fill="#FFFFFF" x="1.21124031" y="18.0978382" width="87.2481076" height="13.2579318" rx="2.42248062"></rect>
                            <g id="Group-18" transform="translate(6.058824, 0.000000)" fill="#FFCE62">
                                <path d="M13.9300805,0 C13.9300805,0 15.9812447,0 18.2642796,1.13626177 C20.935108,2.4655275 28.3549716,8.01044007 40.5238704,17.7709995 C14.3720942,17.7709995 1.29620611,17.7709995 1.29620611,17.7709995 C0.464449328,16.1690664 0,14.3826393 0,12.4988794 C0,5.59593893 6.23670946,0 13.9300805,0 Z M13.55552,4.54504706 C9.22122651,4.54504706 5.70758738,7.69768871 5.70758738,11.5866693 C5.70758738,12.6479424 5.96924898,13.6543803 6.43784434,14.5568778 C6.43784434,14.5568778 13.8045419,14.5568778 28.5379369,14.5568778 C21.6822192,9.05797105 17.5020144,5.93407664 15.9973224,5.18519454 C14.7111055,4.54504706 13.55552,4.54504706 13.55552,4.54504706 Z" id="Combined-Shape" stroke="#FFBB62" stroke-width="2.42248062"></path>
                                <path d="M51.6001572,0 C51.6001572,0 53.6513214,0 55.9343564,1.13626177 C58.6051847,2.4655275 66.0250483,8.01044007 78.1939471,17.7709995 C52.0421709,17.7709995 38.9662828,17.7709995 38.9662828,17.7709995 C38.1345261,16.1690664 37.6700767,14.3826393 37.6700767,12.4988794 C37.6700767,5.59593893 43.9067862,0 51.6001572,0 Z M51.2255968,4.54504706 C46.8913032,4.54504706 43.3776641,7.69768871 43.3776641,11.5866693 C43.3776641,12.6479424 43.6393257,13.6543803 44.1079211,14.5568778 C44.1079211,14.5568778 51.4746186,14.5568778 66.2080136,14.5568778 C59.352296,9.05797105 55.1720911,5.93407664 53.6673991,5.18519454 C52.3811822,4.54504706 51.2255968,4.54504706 51.2255968,4.54504706 Z" id="Combined-Shape" stroke="#FFBB62" stroke-width="2.42248062" transform="translate(57.932012, 8.885500) scale(-1, 1) translate(-57.932012, -8.885500) "></path>
                                <rect id="Rectangle-14" x="31.5058824" y="19.2989691" width="14.5411765" height="10.8556701"></rect>
                                <path d="M36.3524168,18.0877288 L42.4122891,18.0877288 L42.4122891,13.8888256 C42.4122891,12.2164517 41.0565622,10.8607248 39.3841883,10.8607248 L39.3805176,10.8607248 C37.7081437,10.8607248 36.3524168,12.2164517 36.3524168,13.8888256 L36.3524168,18.0877288 Z" id="Rectangle-15" stroke="#FFBB62" stroke-width="2.42248062"></path>
                            </g>
                        </g>
                        <g id="Group-21" transform="translate(88.458824, 69.958763)">
                            <g id="Group-19">
                                <rect id="Rectangle-14" stroke="#FFBB62" stroke-width="2.42248062" fill="#FFFFFF" x="4.84653443" y="18.0978382" width="106.636343" height="27.7321586" rx="2.42248062"></rect>
                                <rect id="Rectangle-14" fill="#E6ECF3" x="6.05882353" y="19.2989691" width="104.211765" height="7.2371134"></rect>
                                <rect id="Rectangle-14" stroke="#FFBB62" stroke-width="2.42248062" fill="#FFFFFF" x="1.21124031" y="4.82979701" width="113.906931" height="13.2579318" rx="2.42248062"></rect>
                                <g id="Group-18" transform="translate(49.682353, 0.000000)">
                                    <rect id="Rectangle-14" fill="#FFCE62" x="1.21176471" y="6.03092784" width="14.5411765" height="10.8556701"></rect>
                                    <rect id="Rectangle-14" fill="#FFCE62" x="1.21176471" y="19.2989691" width="14.5411765" height="25.3298969"></rect>
                                    <rect id="Rectangle-14" fill="#E9B96A" x="1.21176471" y="19.2989691" width="14.5411765" height="7.2371134"></rect>
                                    <path d="M1.21124031,4.81968752 L15.7534656,4.81968752 L15.7534656,2.42248062 C15.7534656,1.75353107 15.2111748,1.21124031 14.5422253,1.21124031 L2.42248062,1.21124031 C1.75353107,1.21124031 1.21124031,1.75353107 1.21124031,2.42248062 L1.21124031,4.81968752 Z" id="Rectangle-15" stroke="#FFBB62" stroke-width="2.42248062" fill="#FFCE62"></path>
                                </g>
                            </g>
                        </g>
                    </g>
                </g>
            </g>
        </g>
    </g>
</svg>