<svg xmlns="http://www.w3.org/2000/svg" xmlns:xlink="http://www.w3.org/1999/xlink" width="775" height="776" viewBox="0 0 775 776">
    <defs>
        <ellipse id="b" cx="291" cy="291.5" rx="247" ry="247.5"/>
        <filter id="a" width="157.5%" height="157.4%" x="-28.7%" y="-28.3%" filterUnits="objectBoundingBox">
            <feOffset dy="2" in="SourceAlpha" result="shadowOffsetOuter1"/>
            <feGaussianBlur in="shadowOffsetOuter1" result="shadowBlurOuter1" stdDeviation="47"/>
            <feComposite in="shadowBlurOuter1" in2="SourceAlpha" operator="out" result="shadowBlurOuter1"/>
            <feColorMatrix in="shadowBlurOuter1" values="0 0 0 0 0 0 0 0 0 0 0 0 0 0 0 0 0 0 0.5 0"/>
        </filter>
        <ellipse id="d" cx="290.998" cy="291.36" rx="178.998" ry="179.36"/>
        <filter id="c" width="179.3%" height="179.2%" x="-39.7%" y="-39%" filterUnits="objectBoundingBox">
            <feOffset dy="2" in="SourceAlpha" result="shadowOffsetOuter1"/>
            <feGaussianBlur in="shadowOffsetOuter1" result="shadowBlurOuter1" stdDeviation="47"/>
            <feComposite in="shadowBlurOuter1" in2="SourceAlpha" operator="out" result="shadowBlurOuter1"/>
            <feColorMatrix in="shadowBlurOuter1" values="0 0 0 0 0 0 0 0 0 0 0 0 0 0 0 0 0 0 0.34 0"/>
        </filter>
        <ellipse id="f" cx="290.5" cy="291" rx="290.5" ry="291"/>
        <filter id="e" width="157.8%" height="157.7%" x="-28.9%" y="-28.5%" filterUnits="objectBoundingBox">
            <feOffset dy="2" in="SourceAlpha" result="shadowOffsetOuter1"/>
            <feGaussianBlur in="shadowOffsetOuter1" result="shadowBlurOuter1" stdDeviation="67"/>
            <feComposite in="shadowBlurOuter1" in2="SourceAlpha" operator="out" result="shadowBlurOuter1"/>
            <feColorMatrix in="shadowBlurOuter1" values="0 0 0 0 0 0 0 0 0 0 0 0 0 0 0 0 0 0 0.5 0"/>
        </filter>
        <path id="h" d="M230.789 312.98c1.75.933 3.776 1.56 5.198 2.864 20.358 18.714 40.631 37.523 60.957 56.269 2.992 2.747 4.742 5.558 1.655 9.314-2.97 3.628-6.11 3.808-10.152.255-16.698-14.672-33.375-29.355-49.978-44.111-9.728-8.636-19.615-17.123-28.887-26.225-20.719-20.326-26.639-51.707-4.647-75.46 8.805-9.505 18.11-18.395 31.073-21.769 17.282-4.498 32.845-.7 46.456 10.885 2.376 2.015 4.71 4.127 6.895 6.365 2.97 3.066 5.336 2.726 8.19-.403 8.604-9.495 18.788-16.178 31.794-18.364 26.862-4.52 56.99 17.101 60.98 44.037 2.163 14.597-.712 27.667-10.79 38.934-10.386 11.616-20.507 23.477-31.073 35.603-4.074-3.671-7.33-6.61-11.086-10.004 4.859-5.103 9.57-10.057 14.269-15.012.902-.955 1.973-1.803 2.652-2.907.51-.827.499-1.962.721-2.96-1.103.17-2.599-.052-3.246.584-4.456 4.392-8.73 8.954-13.049 13.484-1.23 1.294-2.408 2.641-3.893 4.275l-7.246-6.662c5.793-7.691 13.664-13.293 18.799-21.016-.53-.435-1.05-.87-1.57-1.305-6.334 6.684-12.667 13.356-19.266 20.316-3.914-3.533-6.779-6.11-10.046-9.06 6.673-7.012 13.08-13.749 19.488-20.464-.297-.573-.594-1.135-.89-1.698-1.454.648-3.184.998-4.319 2.005-6.036 5.326-11.913 10.832-18.088 16.486a4726.19 4726.19 0 0 0-6.068-5.559c6.503-7.51 13.919-14.035 19.34-22.288-5.771.572-7.946 5.537-11.553 8.646-3.724 3.214-7.224 6.683-11.235 10.417-2.81-2.588-6.025-5.527-9.77-8.975 4.275-4.455 8.328-8.678 12.39-12.9 1.815-1.899 3.81-3.67 5.4-5.76.818-1.061.902-2.684 1.316-4.063-1.337.54-2.938.774-3.968 1.676-6.322 5.527-12.507 11.213-19.19 17.25-5.485-5.018-12.2-11.14-18.895-17.282-.594.414-1.167.817-1.76 1.21.943 1.559 1.601 3.426 2.874 4.614 21.95 20.411 43.973 40.716 65.965 61.064 1.57 1.443 3.193 2.864 4.636 4.424 2.419 2.599 2.334 5.368-.021 7.924-2.345 2.536-5.082 2.865-7.914.732-.923-.69-1.719-1.527-2.557-2.312-22.246-20.57-44.482-41.14-66.718-61.7-.477-.446-.891-1.072-1.464-1.305-1.093-.435-2.27-.648-3.416-.955.34 1.252.276 2.907 1.082 3.66 8.476 8.041 17.101 15.934 25.684 23.87 14.268 13.175 28.6 26.288 42.732 39.623 1.697 1.602 3.118 4.37 3.182 6.64.085 3.353-4.275 5.38-7.426 3.83-1.432-.71-2.652-1.898-3.85-3.002-21.537-19.87-43.04-39.782-64.608-59.6-1.315-1.209-3.214-1.76-4.837-2.63-.35.562-.69 1.124-1.04 1.686 1.188 1.242 2.313 2.557 3.564 3.724a48822.103 48822.103 0 0 0 64.544 59.685c2.864 2.641 5.177 5.304 2.387 9.282-2.674 3.809-6.408 3.851-10.45.138-16.581-15.298-33.13-30.606-49.691-45.914-4.965-4.583-9.855-9.23-14.905-13.707-1.157-1.04-2.822-1.506-4.254-2.238l-1.104 1.623c1.125 1.23 2.175 2.557 3.395 3.692 20.889 19.36 41.798 38.69 62.687 58.04 1.21 1.114 3.023 2.207 3.267 3.554.404 2.164.52 5.294-.72 6.577-1.242 1.273-4.34 1.146-6.547.913-1.209-.138-2.302-1.74-3.384-2.737-20.188-18.661-40.355-37.343-60.586-55.961-1.41-1.295-3.278-2.09-4.933-3.13-.827 1.082-1.655 2.175-2.482 3.268"/>
        <filter id="g" width="152%" height="160.4%" x="-26%" y="-29%" filterUnits="objectBoundingBox">
            <feOffset dy="2" in="SourceAlpha" result="shadowOffsetOuter1"/>
            <feGaussianBlur in="shadowOffsetOuter1" result="shadowBlurOuter1" stdDeviation="17"/>
            <feColorMatrix in="shadowBlurOuter1" values="0 0 0 0 0 0 0 0 0 0 0 0 0 0 0 0 0 0 0.18 0"/>
        </filter>
    </defs>
    <g fill="none" fill-rule="evenodd">
        <g opacity=".33" transform="translate(97 95)">
            <use fill="#000" filter="url(#a)" xlink:href="#b"/>
            <use fill="#D8D8D8" fill-opacity="0" xlink:href="#b"/>
        </g>
        <g opacity=".412" transform="translate(97 95)">
            <use fill="#000" filter="url(#c)" xlink:href="#d"/>
            <use fill="#D8D8D8" fill-opacity="0" xlink:href="#d"/>
        </g>
        <g opacity=".15" transform="translate(97 95)">
            <use fill="#000" filter="url(#e)" xlink:href="#f"/>
            <use fill="#D8D8D8" fill-opacity="0" xlink:href="#f"/>
        </g>
        <g transform="translate(97 95)">
            <use fill="#000" filter="url(#g)" xlink:href="#h"/>
            <use fill="#FEFEFE" xlink:href="#h"/>
        </g>
    </g>
</svg>
