<?xml version="1.0" encoding="UTF-8"?>
<svg width="368px" height="89px" viewBox="0 0 368 89" version="1.1" xmlns="http://www.w3.org/2000/svg" xmlns:xlink="http://www.w3.org/1999/xlink">
    <!-- Generator: Sketch 50.2 (55047) - http://www.bohemiancoding.com/sketch -->
    <title>Group 4</title>
    <desc>Created with Sketch.</desc>
    <defs>
        <path d="M21.7702202,5.81492815 C20.1421007,9.6417479 19.2664,13.7988059 19.2664,18.1423694 C19.2664,32.679036 27.9688,45.139036 49.932,49.9153694 L61.7424,52.615036 C69.4088,54.2763694 71.8952,57.3913694 71.8952,61.1293694 C71.8952,65.698036 67.9584,70.059036 59.8776,70.059036 C49.1032,70.059036 44.1304,63.206036 43.716,56.1453694 L19.9728132,60.3881851 L0.740808901,18.0975584 C-1.08819626,14.0756285 0.689520539,9.33250841 4.7114505,7.50350325 C5.58202092,7.10760432 6.5165254,6.87101184 7.47060378,6.80495667 L21.7702106,5.8149301 Z M95.2031349,0.730836056 L105.25938,0.034596684 C109.667106,-0.270570197 113.487661,3.05521156 113.792828,7.46293814 C113.870521,8.58510747 113.710692,9.71104738 113.323773,10.7672644 L99.7060487,47.9411831 C95.8850269,37.5516326 86.0145586,29.3422885 69.8232,26.0337027 L56.148,23.334036 C51.5896,22.5033694 48.0672,20.0113694 48.0672,15.6503694 C48.0672,10.251036 53.2472,6.7207027 59.256,6.7207027 C68.7872,6.7207027 73.1384,12.5353694 73.9672,19.3883694 L100.0744,14.612036 C99.714888,10.4323044 98.2325577,5.45232597 95.2031349,0.730836056 Z" id="path-1"></path>
    </defs>
    <g id="Landing" stroke="none" stroke-width="1" fill="none" fill-rule="evenodd">
        <g id="Group-4">
            <mask id="mask-2" fill="white">
                <use xlink:href="#path-1"></use>
            </mask>
            <use id="Rectangle-4" fill="#FFFFFF" xlink:href="#path-1"></use>
            <ellipse id="Oval-3" fill="#FFBB62" cx="41.8" cy="83.9887387" rx="5" ry="5.01126126"></ellipse>
            <ellipse id="Oval-3" fill="#FFBB62" cx="73.8" cy="83.9887387" rx="5" ry="5.01126126"></ellipse>
            <g id="Group-2" transform="translate(146.000000, 22.000000)" fill="#FFFFFF">
                <g id="Group" transform="translate(0.800000, 0.049550)">
                    <path d="M127.272,11.586036 C131.232,11.586036 134.592,13.1495495 137.412,16.2164414 C140.232,19.2833333 141.612,23.0117117 141.612,27.4617117 C141.612,31.9117117 140.232,35.7002252 137.412,38.7671171 C134.592,41.834009 131.232,43.3373874 127.272,43.3373874 C123.432,43.3373874 120.432,42.1346847 118.332,39.6691441 L118.332,42.4954955 L109.332,42.4954955 L109.332,0.400900901 L118.332,0.400900901 L118.332,15.2542793 C120.432,12.7887387 123.432,11.586036 127.272,11.586036 Z M120.312,32.8137387 C121.692,34.1367117 123.372,34.7981982 125.472,34.7981982 C127.572,34.7981982 129.252,34.1367117 130.572,32.8137387 C131.952,31.4907658 132.612,29.6867117 132.612,27.4617117 C132.612,25.2367117 131.952,23.4326577 130.572,22.1096847 C129.252,20.7867117 127.572,20.1252252 125.472,20.1252252 C123.372,20.1252252 121.692,20.7867117 120.312,22.1096847 C118.992,23.4326577 118.332,25.2367117 118.332,27.4617117 C118.332,29.6867117 118.992,31.4907658 120.312,32.8137387 Z M172.74,15.2542793 L172.74,12.4279279 L181.74,12.4279279 L181.74,42.4954955 L172.74,42.4954955 L172.74,39.6691441 C170.64,42.1346847 167.64,43.3373874 163.8,43.3373874 C159.84,43.3373874 156.48,41.834009 153.66,38.7671171 C150.84,35.7002252 149.46,31.9117117 149.46,27.4617117 C149.46,23.0117117 150.84,19.2833333 153.66,16.2164414 C156.48,13.1495495 159.84,11.586036 163.8,11.586036 C167.64,11.586036 170.64,12.7887387 172.74,15.2542793 Z M160.44,32.8137387 C161.76,34.1367117 163.5,34.7981982 165.6,34.7981982 C167.7,34.7981982 169.44,34.1367117 170.76,32.8137387 C172.08,31.4907658 172.74,29.6867117 172.74,27.4617117 C172.74,25.2367117 172.08,23.4326577 170.76,22.1096847 C169.44,20.7867117 167.7,20.1252252 165.6,20.1252252 C163.5,20.1252252 161.76,20.7867117 160.44,22.1096847 C159.12,23.4326577 158.46,25.2367117 158.46,27.4617117 C158.46,29.6867117 159.12,31.4907658 160.44,32.8137387 Z M205.848,30.8292793 L211.488,12.4279279 L221.088,12.4279279 L210.828,41.5934685 C207.468,51.0346847 202.188,54.9434685 193.728,54.5225225 L193.728,46.1036036 C197.868,46.1036036 199.848,44.7806306 201.228,41.1123874 L189.288,12.4279279 L199.188,12.4279279 L205.848,30.8292793 Z" id="skitbay"></path>
                    <path d="M4.92,20.3056306 C4.92,23.0117117 7.68,24.5150901 11.1,25.4171171 C16.14,26.679955 22.44,28.0630631 22.44,34.5576577 C22.44,37.1434685 21.42,39.1880631 19.38,40.8117117 C17.4,42.4353604 14.76,43.2171171 11.58,43.2171171 C5.82,43.2171171 1.62,40.3907658 0,36.3015766 L3.36,34.3171171 C4.5,37.4441441 7.56,39.3684685 11.58,39.3684685 C15.48,39.3684685 18.48,37.8650901 18.48,34.5576577 C18.48,31.8515766 15.72,30.3481982 12.3,29.4461712 C7.26,28.1833333 0.96,26.8002252 0.96,20.3056306 C0.96,17.8400901 1.92,15.7954955 3.84,14.1718468 C5.82,12.5481982 8.28,11.7063063 11.22,11.7063063 C16.08,11.7063063 19.98,14.0515766 21.72,17.8400901 L18.42,19.7644144 C17.28,16.9380631 14.88,15.554955 11.22,15.554955 C7.8,15.554955 4.92,17.2387387 4.92,20.3056306 Z M41.148,26.8603604 L57.228,42.4954955 L51.948,42.4954955 L36.948,28.0029279 L36.948,42.4954955 L32.988,42.4954955 L32.988,0.400900901 L36.948,0.400900901 L36.948,25.7177928 L51.228,12.4279279 L56.628,12.4279279 L41.148,26.8603604 Z M70.8959999,5.21171171 C69.7559999,6.35427928 67.9559999,6.35427928 66.8159999,5.21171171 C65.6759999,4.06914414 65.6759999,2.26509009 66.8159999,1.12252252 C67.9559999,-0.020045045 69.7559999,-0.020045045 70.8959999,1.12252252 C72.0359999,2.26509009 72.0359999,4.06914414 70.8959999,5.21171171 Z M70.8359999,42.4954955 L66.8759999,42.4954955 L66.8759999,12.4279279 L70.8359999,12.4279279 L70.8359999,42.4954955 Z M99.3839999,12.4279279 L99.3839999,16.2765766 L90.7439999,16.2765766 L90.7439999,34.4975225 C90.7439999,39.6691441 93.6239999,39.2481982 99.3839999,39.0076577 L99.3839999,42.4954955 C90.9839999,43.7583333 86.7839999,41.4731982 86.7839999,34.4975225 L86.7839999,16.2765766 L80.4839999,16.2765766 L80.4839999,12.4279279 L86.7839999,12.4279279 L86.7839999,5.21171171 L90.7439999,4.00900901 L90.7439999,12.4279279 L99.3839999,12.4279279 Z" id="skitbay" fill-opacity="0.7"></path>
                </g>
            </g>
        </g>
    </g>
</svg>