<?xml version="1.0" encoding="UTF-8"?>
<svg width="114px" height="89px" viewBox="0 0 114 89" version="1.1" xmlns="http://www.w3.org/2000/svg" xmlns:xlink="http://www.w3.org/1999/xlink">
    <!-- Generator: Sketch 50.2 (55047) - http://www.bohemiancoding.com/sketch -->
    <title>Group 16</title>
    <desc>Created with Sketch.</desc>
    <defs>
        <path d="M21.7377995,5.79917421 C20.10968,9.62599395 19.2339793,13.7830519 19.2339793,18.1266154 C19.2339793,32.6632821 27.9363793,45.1232821 49.8995793,49.8996154 L61.7099793,52.5992821 C69.3763793,54.2606154 71.8627793,57.3756154 71.8627793,61.1136154 C71.8627793,65.6822821 67.9259793,70.0432821 59.8451793,70.0432821 C49.0707793,70.0432821 44.0979793,63.1902821 43.6835793,56.1296154 L19.9403925,60.3724312 L0.708388163,18.0818045 C-1.120617,14.0598745 0.657099801,9.31675446 4.67902976,7.4877493 C5.54960018,7.09185037 6.48410467,6.85525789 7.43818304,6.78920272 L21.7377899,5.79917615 Z M95.1707142,0.71508211 L105.226959,0.0188427375 C109.634685,-0.286324144 113.45524,3.03945761 113.760407,7.4471842 C113.8381,8.56935352 113.678271,9.69529344 113.291353,10.7515104 L99.673628,47.9254291 C95.8526062,37.5358786 85.9821378,29.3265346 69.7907793,26.0179488 L56.1155793,23.3182821 C51.5571793,22.4876154 48.0347793,19.9956154 48.0347793,15.6346154 C48.0347793,10.2352821 53.2147793,6.70494876 59.2235793,6.70494876 C68.7547793,6.70494876 73.1059793,12.5196154 73.9347793,19.3726154 L100.041979,14.5962821 C99.6824673,10.4165505 98.200137,5.43657202 95.1707142,0.71508211 Z" id="path-1"></path>
    </defs>
    <g id="Landing" stroke="none" stroke-width="1" fill="none" fill-rule="evenodd">
        <g id="Skitbay_Landing" transform="translate(-901.000000, -3141.000000)">
            <g id="_Roadmap" transform="translate(0.000000, 2504.000000)">
                <g id="Content" transform="translate(240.000000, 637.000000)">
                    <g id="Group-15" transform="translate(661.000000, 0.000000)">
                        <g id="Group-16">
                            <mask id="mask-2" fill="white">
                                <use xlink:href="#path-1"></use>
                            </mask>
                            <use id="Rectangle-4" fill="#FFFFFF" xlink:href="#path-1"></use>
                            <ellipse id="Oval-3" fill="#FFBB62" cx="42" cy="84.0112613" rx="5" ry="5.01126126"></ellipse>
                            <ellipse id="Oval-3" fill="#FFBB62" cx="74" cy="84.0112613" rx="5" ry="5.01126126"></ellipse>
                        </g>
                    </g>
                </g>
            </g>
        </g>
    </g>
</svg>